REM DIRINDEX 1\6,1\2\7,1\2\8,1\2\9,1\3\10,1\3\11,1\4\12,1\4\13,1\4\14,1\5\15,1\5\16,1\5\17
REM DIRNAME cjc041,folder01,folder02,folder03,folder04,folder05,folder06,folder07,folder08,folder09,folder10,folder11,folder12,folder13,folder14,folder15,folder16
TITLE ""
FILE "3Q_t_0001-0015.mp3" MP3
  TRACK 01 AUDIO
    TITLE "6:cjc041_1604"
    INDEX 01 00:00:00
  TRACK 02 AUDIO
    TITLE "0:"
    INDEX 01 00:07:07
  TRACK 03 AUDIO
    TITLE "10:cjc041_1605"
    INDEX 01 00:08:15
  TRACK 04 AUDIO
    TITLE "0:"
    INDEX 01 00:09:16
  TRACK 05 AUDIO
    TITLE "11:cjc041_1606"
    INDEX 01 00:09:73
  TRACK 06 AUDIO
    TITLE "0:"
    INDEX 01 00:15:01
  TRACK 07 AUDIO
    TITLE "10:cjc041_1607"
    INDEX 01 00:15:56
  TRACK 08 AUDIO
    TITLE "0:"
    INDEX 01 00:16:55
  TRACK 09 AUDIO
    TITLE "11:cjc041_1608"
    INDEX 01 00:17:33
  TRACK 10 AUDIO
    TITLE "0:"
    INDEX 01 00:22:70
  TRACK 11 AUDIO
    TITLE "10:cjc041_1609"
    INDEX 01 00:23:50
  TRACK 12 AUDIO
    TITLE "0:"
    INDEX 01 00:24:55
  TRACK 13 AUDIO
    TITLE "11:cjc041_1610"
    INDEX 01 00:25:37
  TRACK 14 AUDIO
    TITLE "0:"
    INDEX 01 00:31:22
  TRACK 15 AUDIO
    TITLE "10:cjc041_1611"
    INDEX 01 00:32:01
  TRACK 16 AUDIO
    TITLE "0:"
    INDEX 01 00:33:01
  TRACK 17 AUDIO
    TITLE "11:cjc041_1612"
    INDEX 01 00:33:54
  TRACK 18 AUDIO
    TITLE "0:"
    INDEX 01 00:37:28
  TRACK 19 AUDIO
    TITLE "10:cjc041_1613"
    INDEX 01 00:38:06
  TRACK 20 AUDIO
    TITLE "0:"
    INDEX 01 00:39:05
  TRACK 21 AUDIO
    TITLE "11:cjc041_1614"
    INDEX 01 00:39:62
  TRACK 22 AUDIO
    TITLE "0:"
    INDEX 01 00:42:04
  TRACK 23 AUDIO
    TITLE "10:cjc041_1615"
    INDEX 01 00:42:57
  TRACK 24 AUDIO
    TITLE "0:"
    INDEX 01 00:43:60
  TRACK 25 AUDIO
    TITLE "11:cjc041_1616"
    INDEX 01 00:44:46
  TRACK 26 AUDIO
    TITLE "0:"
    INDEX 01 00:48:10
  TRACK 27 AUDIO
    TITLE "10:cjc041_1617"
    INDEX 01 00:48:63
  TRACK 28 AUDIO
    TITLE "0:"
    INDEX 01 00:49:72
  TRACK 29 AUDIO
    TITLE "11:cjc041_1618"
    INDEX 01 00:50:54
  TRACK 30 AUDIO
    TITLE "0:"
    INDEX 01 00:51:54
  TRACK 31 AUDIO
    TITLE "10:cjc041_1619"
    INDEX 01 00:52:36
  TRACK 32 AUDIO
    TITLE "0:"
    INDEX 01 00:53:45
  TRACK 33 AUDIO
    TITLE "11:cjc041_1620"
    INDEX 01 00:54:29
  TRACK 34 AUDIO
    TITLE "0:"
    INDEX 01 00:55:46
  TRACK 35 AUDIO
    TITLE "10:cjc041_1621"
    INDEX 01 00:56:22
  TRACK 36 AUDIO
    TITLE "0:"
    INDEX 01 00:57:27
  TRACK 37 AUDIO
    TITLE "11:cjc041_1622"
    INDEX 01 00:58:11
  TRACK 38 AUDIO
    TITLE "0:"
    INDEX 01 01:03:55
  TRACK 39 AUDIO
    TITLE "10:cjc041_1623"
    INDEX 01 01:04:35
  TRACK 40 AUDIO
    TITLE "0:"
    INDEX 01 01:05:40
  TRACK 41 AUDIO
    TITLE "11:cjc041_1624"
    INDEX 01 01:06:20
  TRACK 42 AUDIO
    TITLE "0:"
    INDEX 01 01:07:70
  TRACK 43 AUDIO
    TITLE "10:cjc041_1625"
    INDEX 01 01:08:48
  TRACK 44 AUDIO
    TITLE "0:"
    INDEX 01 01:09:67
  TRACK 45 AUDIO
    TITLE "11:cjc041_1626"
    INDEX 01 01:10:51
  TRACK 46 AUDIO
    TITLE "0:"
    INDEX 01 01:12:09
  TRACK 47 AUDIO
    TITLE "10:cjc041_1627"
    INDEX 01 01:12:66
  TRACK 48 AUDIO
    TITLE "0:"
    INDEX 01 01:14:04
  TRACK 49 AUDIO
    TITLE "11:cjc041_1628"
    INDEX 01 01:14:61
  TRACK 50 AUDIO
    TITLE "0:"
    INDEX 01 01:17:49
  TRACK 51 AUDIO
    TITLE "10:cjc041_1629"
    INDEX 01 01:18:27
  TRACK 52 AUDIO
    TITLE "0:"
    INDEX 01 01:19:40
  TRACK 53 AUDIO
    TITLE "11:cjc041_1630"
    INDEX 01 01:20:26
  TRACK 54 AUDIO
    TITLE "0:"
    INDEX 01 01:22:50
  TRACK 55 AUDIO
    TITLE "10:cjc041_1631"
    INDEX 01 01:23:30
  TRACK 56 AUDIO
    TITLE "0:"
    INDEX 01 01:24:49
  TRACK 57 AUDIO
    TITLE "11:cjc041_1632"
    INDEX 01 01:25:23
  TRACK 58 AUDIO
    TITLE "0:"
    INDEX 01 01:27:51
  TRACK 59 AUDIO
    TITLE "10:cjc041_1633"
    INDEX 01 01:28:33
  TRACK 60 AUDIO
    TITLE "0:"
    INDEX 01 01:29:46
  TRACK 61 AUDIO
    TITLE "11:cjc041_1634"
    INDEX 01 01:30:28
  TRACK 62 AUDIO
    TITLE "0:"
    INDEX 01 01:33:27
